<svg width="48" height="56" viewBox="0 0 48 56" fill="none" xmlns="http://www.w3.org/2000/svg">
<path d="M26.5194 54.5304C24.9625 55.4385 23.0375 55.4385 21.4806 54.5304L2.48064 43.447C0.944552 42.551 -1.31952e-06 40.9065 -1.47498e-06 39.1282L-4.45856e-06 5C-4.69997e-06 2.23858 2.23857 4.00059e-06 5 3.75918e-06L43 4.37114e-07C45.7614 1.95703e-07 48 2.23858 48 5L48 39.1281C48 40.9065 47.0554 42.551 45.5194 43.447L26.5194 54.5304Z" fill="#02BAD3"/>
<path fill-rule="evenodd" clip-rule="evenodd" d="M15.6668 17.3334V25.6667C15.6668 27.8769 16.5448 29.9965 18.1076 31.5593C19.6704 33.1221 21.79 34.0001 24.0002 34.0001C26.2103 34.0001 28.3299 33.1221 29.8927 31.5593C31.4555 29.9965 32.3335 27.8769 32.3335 25.6667V17.3334H15.6668ZM12.3335 10.6667H35.6668V25.6667C35.6668 27.1988 35.3651 28.7159 34.7788 30.1314C34.1925 31.5469 33.3331 32.833 32.2497 33.9163C31.1664 34.9997 29.8803 35.859 28.4648 36.4453C27.0493 37.0316 25.5323 37.3334 24.0002 37.3334C22.4681 37.3334 20.951 37.0316 19.5355 36.4453C18.1201 35.859 16.8339 34.9997 15.7506 33.9163C14.6672 32.833 13.8079 31.5469 13.2216 30.1314C12.6353 28.7159 12.3335 27.1988 12.3335 25.6667V10.6667Z" fill="white"/>
</svg>
