<svg width="24" height="24" viewBox="0 0 24 24" fill="none" xmlns="http://www.w3.org/2000/svg">
<rect width="24" height="24" rx="5" fill="#141414"/>
<path d="M12 6.22222C13.8818 6.22222 14.0993 6.23167 14.8463 6.26004C15.5366 6.28841 15.9054 6.40189 16.1513 6.50591C16.4823 6.63829 16.7187 6.78959 16.9645 7.03546C17.2104 7.28132 17.3617 7.51773 17.4941 7.84869C17.5887 8.09456 17.7021 8.47281 17.74 9.15366C17.7778 9.9007 17.7778 10.1182 17.7778 12C17.7778 13.8818 17.7683 14.0993 17.74 14.8463C17.7116 15.5366 17.5981 15.9054 17.4941 16.1513C17.3617 16.4823 17.2104 16.7187 16.9645 16.9645C16.7187 17.2104 16.4823 17.3617 16.1513 17.4941C15.9054 17.5886 15.5272 17.7021 14.8463 17.7399C14.0993 17.7778 13.8818 17.7778 12 17.7778C10.1182 17.7778 9.90071 17.7683 9.15366 17.7399C8.46336 17.7116 8.09456 17.5981 7.8487 17.4941C7.51773 17.3617 7.28132 17.2104 7.03546 16.9645C6.78959 16.7187 6.6383 16.4823 6.50591 16.1513C6.41135 15.9054 6.29787 15.5272 6.26004 14.8463C6.22222 14.0993 6.22222 13.8818 6.22222 12C6.22222 10.1182 6.23168 9.9007 6.26004 9.15366C6.28841 8.46335 6.40189 8.09456 6.50591 7.84869C6.6383 7.51773 6.78959 7.28132 7.03546 7.03546C7.28132 6.78959 7.51773 6.63829 7.8487 6.50591C8.09456 6.41134 8.47281 6.29787 9.15366 6.26004C9.90071 6.23167 10.1182 6.22222 12 6.22222ZM12 4.95508C10.0898 4.95508 9.84397 4.96453 9.09693 4.9929C8.34988 5.03073 7.83924 5.1442 7.38534 5.32387C6.92198 5.50354 6.52482 5.73995 6.13711 6.13711C5.7494 6.52482 5.50354 6.92198 5.32387 7.38534C5.15366 7.82978 5.03073 8.34988 4.99291 9.09692C4.95508 9.84397 4.95508 10.0898 4.95508 12C4.95508 13.9102 4.96454 14.156 4.99291 14.9031C5.03073 15.6501 5.14421 16.1608 5.32387 16.6147C5.50354 17.078 5.73995 17.4752 6.13711 17.8629C6.52482 18.2506 6.92198 18.4964 7.38534 18.6761C7.82978 18.8463 8.34988 18.9693 9.09693 19.0071C9.84397 19.0449 10.0898 19.0449 12 19.0449C13.9102 19.0449 14.156 19.0355 14.9031 19.0071C15.6501 18.9693 16.1608 18.8558 16.6147 18.6761C17.078 18.4964 17.4752 18.26 17.8629 17.8629C18.2506 17.4752 18.4965 17.078 18.6761 16.6147C18.8463 16.1702 18.9693 15.6501 19.0071 14.9031C19.0449 14.156 19.0449 13.9102 19.0449 12C19.0449 10.0898 19.0355 9.84397 19.0071 9.09692C18.9693 8.34988 18.8558 7.83924 18.6761 7.38534C18.4965 6.92198 18.26 6.52482 17.8629 6.13711C17.4752 5.7494 17.078 5.50354 16.6147 5.32387C16.1702 5.15366 15.6501 5.03073 14.9031 4.9929C14.156 4.96453 13.9102 4.95508 12 4.95508Z" fill="white"/>
<path d="M12 8.37842C10.0047 8.37842 8.3877 9.99544 8.3877 11.9907C8.3877 13.986 10.0047 15.603 12 15.603C13.9953 15.603 15.6123 13.986 15.6123 11.9907C15.6123 9.99544 13.9953 8.37842 12 8.37842ZM12 14.3453C10.7045 14.3453 9.65483 13.2957 9.65483 12.0002C9.65483 10.7047 10.7045 9.65501 12 9.65501C13.2955 9.65501 14.3451 10.7047 14.3451 12.0002C14.3451 13.2957 13.2955 14.3453 12 14.3453Z" fill="white"/>
<path d="M15.7635 9.07824C16.2283 9.07824 16.6051 8.70143 16.6051 8.23663C16.6051 7.77182 16.2283 7.39502 15.7635 7.39502C15.2987 7.39502 14.9219 7.77182 14.9219 8.23663C14.9219 8.70143 15.2987 9.07824 15.7635 9.07824Z" fill="white"/>
</svg>
