<svg width="48" height="56" viewBox="0 0 48 56" fill="none" xmlns="http://www.w3.org/2000/svg">
<path d="M26.5194 54.5304C24.9625 55.4385 23.0375 55.4385 21.4806 54.5304L2.48064 43.447C0.944552 42.551 -1.31952e-06 40.9065 -1.47498e-06 39.1282L-4.45856e-06 5C-4.69997e-06 2.23858 2.23857 4.00059e-06 5 3.75918e-06L43 4.37114e-07C45.7614 1.95703e-07 48 2.23858 48 5L48 39.1281C48 40.9065 47.0554 42.551 45.5194 43.447L26.5194 54.5304Z" fill="#FFC81A"/>
<path d="M23.9999 16.3636C21.9746 16.3636 20.0323 17.1681 18.6002 18.6002C17.1681 20.0323 16.3636 21.9746 16.3636 23.9999H10C10 16.2681 16.2681 10 23.9999 10C31.7317 10 37.9998 16.2681 37.9998 23.9999C37.9998 31.7317 31.7317 37.9998 23.9999 37.9998V31.6362C26.0252 31.6362 27.9675 30.8317 29.3996 29.3996C30.8317 27.9675 31.6362 26.0252 31.6362 23.9999C31.6362 21.9746 30.8317 20.0323 29.3996 18.6002C27.9675 17.1681 26.0252 16.3636 23.9999 16.3636Z" fill="white"/>
<path d="M17.6367 31.6363V25.2727H24.0003V31.6363H17.6367Z" fill="white"/>
<path d="M12.5454 31.6362V36.7271H17.6363V31.6362H12.5454Z" fill="white"/>
<path d="M12.5454 31.6365H10V29.0911H12.5454V31.6365Z" fill="white"/>
</svg>
