<svg width="24" height="24" viewBox="0 0 24 24" fill="none" xmlns="http://www.w3.org/2000/svg">
<rect width="24" height="24" rx="5" fill="#141414"/>
<path d="M19.4137 8.52031C19.2246 7.71653 18.5721 7.12078 17.7778 7.03567C15.896 6.82764 14.0047 6.82764 12.1135 6.82764C10.2222 6.82764 8.32151 6.82764 6.44917 7.03567C5.65485 7.12078 5.00237 7.71653 4.81324 8.52031C4.54847 9.66452 4.54846 10.9222 4.54846 12.0948C4.54846 13.2768 4.54847 14.525 4.81324 15.6692C5.00237 16.473 5.65485 17.0688 6.44917 17.1539C8.32151 17.3619 10.2222 17.3619 12.1135 17.3619C14.0047 17.3619 15.9054 17.3619 17.7778 17.1539C18.5721 17.0688 19.2246 16.473 19.4137 15.6692C19.6785 14.525 19.6785 13.2674 19.6785 12.0948C19.6785 10.9222 19.6785 9.66452 19.4137 8.52031ZM10.5154 14.1657V9.96712L14.5154 12.0664L10.5154 14.1657Z" fill="white"/>
</svg>
