<svg width="40" height="40" viewBox="0 0 40 40" fill="none" xmlns="http://www.w3.org/2000/svg">
<circle cx="20" cy="20" r="20" fill="#FF4B33"/>
<path d="M24 21H22C22 21.5304 21.7893 22.0391 21.4142 22.4142C21.0391 22.7893 20.5304 23 20 23C19.4696 23 18.9609 22.7893 18.5858 22.4142C18.2107 22.0391 18 21.5304 18 21H16C16 22.0609 16.4214 23.0783 17.1716 23.8284C17.9217 24.5786 18.9391 25 20 25C21.0609 25 22.0783 24.5786 22.8284 23.8284C23.5786 23.0783 24 22.0609 24 21Z" fill="white"/>
<path d="M18 18C18 18.2652 17.8946 18.5196 17.7071 18.7071C17.5196 18.8946 17.2652 19 17 19C16.7348 19 16.4804 18.8946 16.2929 18.7071C16.1054 18.5196 16 18.2652 16 18C16 17.7348 16.1054 17.4804 16.2929 17.2929C16.4804 17.1054 16.7348 17 17 17C17.2652 17 17.5196 17.1054 17.7071 17.2929C17.8946 17.4804 18 17.7348 18 18Z" fill="white"/>
<path d="M23 19C23.2652 19 23.5196 18.8946 23.7071 18.7071C23.8946 18.5196 24 18.2652 24 18C24 17.7348 23.8946 17.4804 23.7071 17.2929C23.5196 17.1054 23.2652 17 23 17C22.7348 17 22.4804 17.1054 22.2929 17.2929C22.1054 17.4804 22 17.7348 22 18C22 18.2652 22.1054 18.5196 22.2929 18.7071C22.4804 18.8946 22.7348 19 23 19Z" fill="white"/>
<path fill-rule="evenodd" clip-rule="evenodd" d="M30 20C30 25.523 25.523 30 20 30C14.477 30 10 25.523 10 20C10 14.477 14.477 10 20 10C25.523 10 30 14.477 30 20ZM28 20C28 22.1217 27.1571 24.1566 25.6569 25.6569C24.1566 27.1571 22.1217 28 20 28C17.8783 28 15.8434 27.1571 14.3431 25.6569C12.8429 24.1566 12 22.1217 12 20C12 17.8783 12.8429 15.8434 14.3431 14.3431C15.8434 12.8429 17.8783 12 20 12C22.1217 12 24.1566 12.8429 25.6569 14.3431C27.1571 15.8434 28 17.8783 28 20Z" fill="white"/>
</svg>
