<svg width="40" height="40" viewBox="0 0 40 40" fill="none" xmlns="http://www.w3.org/2000/svg">
<circle cx="20" cy="20" r="20" fill="#FF4B33"/>
<path d="M20 23C20.7956 23 21.5587 22.6839 22.1213 22.1213C22.6839 21.5587 23 20.7956 23 20C23 19.2044 22.6839 18.4413 22.1213 17.8787C21.5587 17.3161 20.7956 17 20 17C19.2044 17 18.4413 17.3161 17.8787 17.8787C17.3161 18.4413 17 19.2044 17 20C17 20.7956 17.3161 21.5587 17.8787 22.1213C18.4413 22.6839 19.2044 23 20 23Z" fill="white"/>
<path fill-rule="evenodd" clip-rule="evenodd" d="M20 11C20.2652 11 20.5196 11.1054 20.7071 11.2929C20.8946 11.4804 21 11.7348 21 12V13.07C22.496 13.2862 23.8818 13.9806 24.9506 15.0494C26.0194 16.1182 26.7138 17.504 26.93 19H28C28.2652 19 28.5196 19.1054 28.7071 19.2929C28.8946 19.4804 29 19.7348 29 20C29 20.2652 28.8946 20.5196 28.7071 20.7071C28.5196 20.8946 28.2652 21 28 21H26.93C26.7138 22.496 26.0194 23.8818 24.9506 24.9506C23.8818 26.0194 22.496 26.7138 21 26.93V28C21 28.2652 20.8946 28.5196 20.7071 28.7071C20.5196 28.8946 20.2652 29 20 29C19.7348 29 19.4804 28.8946 19.2929 28.7071C19.1054 28.5196 19 28.2652 19 28V26.93C17.504 26.7138 16.1182 26.0194 15.0494 24.9506C13.9806 23.8818 13.2862 22.496 13.07 21H12C11.7348 21 11.4804 20.8946 11.2929 20.7071C11.1054 20.5196 11 20.2652 11 20C11 19.7348 11.1054 19.4804 11.2929 19.2929C11.4804 19.1054 11.7348 19 12 19H13.07C13.2864 17.5041 13.9808 16.1183 15.0496 15.0496C16.1183 13.9808 17.5041 13.2864 19 13.07V12C19 11.7348 19.1054 11.4804 19.2929 11.2929C19.4804 11.1054 19.7348 11 20 11ZM15 20C15 18.6739 15.5268 17.4021 16.4645 16.4645C17.4021 15.5268 18.6739 15 20 15C21.3261 15 22.5979 15.5268 23.5355 16.4645C24.4732 17.4021 25 18.6739 25 20C25 21.3261 24.4732 22.5979 23.5355 23.5355C22.5979 24.4732 21.3261 25 20 25C18.6739 25 17.4021 24.4732 16.4645 23.5355C15.5268 22.5979 15 21.3261 15 20Z" fill="white"/>
</svg>
