<svg width="48" height="56" viewBox="0 0 48 56" fill="none" xmlns="http://www.w3.org/2000/svg">
<path d="M26.5194 54.5304C24.9625 55.4385 23.0375 55.4385 21.4806 54.5304L2.48064 43.447C0.944552 42.551 -1.31952e-06 40.9065 -1.47498e-06 39.1282L-4.45856e-06 5C-4.69997e-06 2.23858 2.23857 4.00059e-06 5 3.75918e-06L43 4.37114e-07C45.7614 1.95703e-07 48 2.23858 48 5L48 39.1281C48 40.9065 47.0554 42.551 45.5194 43.447L26.5194 54.5304Z" fill="#13D6C3"/>
<path d="M29.7832 22.8217C29.6284 22.6668 29.4447 22.544 29.2425 22.4601C29.0403 22.3763 28.8235 22.3331 28.6046 22.333C28.3857 22.3329 28.1689 22.376 27.9666 22.4597C27.7643 22.5434 27.5805 22.6661 27.4257 22.8208C27.2708 22.9756 27.148 23.1593 27.0641 23.3615C26.9803 23.5638 26.9371 23.7805 26.937 23.9994C26.9369 24.2183 26.98 24.4351 27.0637 24.6374C27.1474 24.8397 27.2701 25.0235 27.4248 25.1783C27.7374 25.4911 28.1613 25.6669 28.6034 25.667C29.0455 25.6672 29.4696 25.4917 29.7823 25.1792C30.0951 24.8667 30.2709 24.4427 30.271 24.0006C30.2712 23.5585 30.0957 23.1344 29.7832 22.8217Z" fill="white"/>
<path d="M30.9615 19.2866C31.1152 19.1275 31.2992 19.0005 31.5025 18.9131C31.7058 18.8258 31.9245 18.7798 32.1458 18.7779C32.3671 18.776 32.5866 18.8181 32.7914 18.9019C32.9963 18.9857 33.1823 19.1095 33.3388 19.266C33.4953 19.4225 33.6191 19.6086 33.7029 19.8134C33.7867 20.0182 33.8288 20.2377 33.8269 20.459C33.825 20.6803 33.779 20.899 33.6917 21.1023C33.6043 21.3057 33.4774 21.4896 33.3182 21.6433C33.0038 21.9469 32.5828 22.1149 32.1458 22.1111C31.7088 22.1073 31.2908 21.932 30.9818 21.623C30.6728 21.314 30.4975 20.896 30.4937 20.459C30.4899 20.022 30.6579 19.601 30.9615 19.2866Z" fill="white"/>
<path d="M36.8533 22.8216C36.6995 22.6624 36.5156 22.5354 36.3123 22.4481C36.1089 22.3607 35.8902 22.3147 35.6689 22.3128C35.4476 22.3109 35.2282 22.3531 35.0233 22.4369C34.8185 22.5207 34.6324 22.6444 34.4759 22.8009C34.3195 22.9574 34.1957 23.1435 34.1119 23.3483C34.0281 23.5531 33.9859 23.7726 33.9879 23.9939C33.9898 24.2152 34.0358 24.4339 34.1231 24.6372C34.2105 24.8406 34.3374 25.0245 34.4966 25.1782C34.8109 25.4818 35.2319 25.6498 35.6689 25.646C36.1059 25.6422 36.524 25.4669 36.833 25.1579C37.142 24.8489 37.3173 24.4309 37.3211 23.9939C37.3249 23.5569 37.1569 23.1359 36.8533 22.8216Z" fill="white"/>
<path d="M30.9618 26.3565C31.1167 26.2017 31.3005 26.079 31.5028 25.9953C31.705 25.9116 31.9218 25.8686 32.1407 25.8687C32.3597 25.8687 32.5764 25.9119 32.7786 25.9958C32.9808 26.0796 33.1646 26.2025 33.3193 26.3573C33.4741 26.5122 33.5968 26.696 33.6805 26.8983C33.7642 27.1005 33.8072 27.3173 33.8072 27.5362C33.8071 27.7552 33.7639 27.9719 33.68 28.1741C33.5962 28.3764 33.4733 28.5601 33.3185 28.7148C33.0057 29.0273 32.5817 29.2028 32.1396 29.2027C31.6974 29.2025 31.2735 29.0267 30.961 28.714C30.6485 28.4013 30.473 27.9772 30.4731 27.5351C30.4733 27.0929 30.6491 26.669 30.9618 26.3565Z" fill="white"/>
<path d="M13.9998 25.6667H10.6665V22.3333H13.9998V19H17.3332V22.3333H20.6665V25.6667H17.3332V29H13.9998V25.6667Z" fill="white"/>
<path fill-rule="evenodd" clip-rule="evenodd" d="M15.6667 12.3333C12.5725 12.3333 9.60501 13.5624 7.41709 15.7503C5.22916 17.9383 4 20.9057 4 23.9999C4 27.0941 5.22916 30.0616 7.41709 32.2495C9.60501 34.4374 12.5725 35.6666 15.6667 35.6666H32.3333C33.8654 35.6666 35.3825 35.3648 36.798 34.7785C38.2134 34.1922 39.4996 33.3328 40.5829 32.2495C41.6663 31.1661 42.5256 29.88 43.1119 28.4646C43.6982 27.0491 44 25.532 44 23.9999C44 22.4678 43.6982 20.9507 43.1119 19.5353C42.5256 18.1198 41.6663 16.8337 40.5829 15.7503C39.4996 14.667 38.2134 13.8076 36.798 13.2213C35.3825 12.635 33.8654 12.3333 32.3333 12.3333H15.6667ZM32.3333 15.6666H15.6667C13.4565 15.6666 11.3369 16.5446 9.77411 18.1074C8.21131 19.6702 7.33333 21.7898 7.33333 23.9999C7.33333 26.2101 8.21131 28.3297 9.77411 29.8925C11.3369 31.4553 13.4565 32.3333 15.6667 32.3333H32.3333C34.5435 32.3333 36.6631 31.4553 38.2259 29.8925C39.7887 28.3297 40.6667 26.2101 40.6667 23.9999C40.6667 21.7898 39.7887 19.6702 38.2259 18.1074C36.6631 16.5446 34.5435 15.6666 32.3333 15.6666Z" fill="white"/>
</svg>
