<svg width="140" height="24" viewBox="0 0 140 24" fill="none" xmlns="http://www.w3.org/2000/svg">
<path d="M38.3151 12.9173V18.7995H35.2407V2.76111H40.6893C41.5573 2.76111 42.3414 2.88962 43.0416 3.14665C43.7418 3.39633 44.3363 3.74882 44.825 4.20412C45.321 4.65208 45.7002 5.19183 45.9628 5.82338C46.2327 6.45492 46.3676 7.15624 46.3676 7.92731C46.3676 8.64698 46.2327 9.31157 45.9628 9.92109C45.7002 10.5306 45.321 11.0593 44.825 11.5073C44.3363 11.9479 43.7418 12.2931 43.0416 12.5427C42.3414 12.7924 41.5573 12.9173 40.6893 12.9173H38.3151ZM38.3151 10.4058H40.6893C41.1269 10.4058 41.5062 10.3397 41.8272 10.2075C42.1481 10.0753 42.4143 9.89539 42.6258 9.66773C42.8447 9.44008 43.0051 9.17939 43.1072 8.88564C43.2167 8.58456 43.2714 8.27246 43.2714 7.94934C43.2714 7.57482 43.2167 7.226 43.1072 6.90288C43.0051 6.57977 42.8447 6.29704 42.6258 6.0547C42.4143 5.81236 42.1481 5.62143 41.8272 5.4819C41.5062 5.34237 41.1269 5.27261 40.6893 5.27261H38.3151V10.4058Z" fill="black"/>
<path d="M49.2451 1.87988H55.8644V16.31H59.256V18.7995H49.2451V16.31H52.79V4.38037H49.2451V1.87988Z" fill="black"/>
<path d="M69.4639 18.7995C69.391 18.6526 69.329 18.4837 69.2779 18.2928C69.2269 18.1018 69.1831 17.8999 69.1466 17.6869C68.9789 17.8705 68.7856 18.0431 68.5668 18.2046C68.3479 18.3662 68.1036 18.5094 67.8337 18.6342C67.5711 18.7517 67.2794 18.8435 66.9584 18.9096C66.6375 18.983 66.2911 19.0198 65.9191 19.0198C65.3137 19.0198 64.7557 18.9316 64.2451 18.7554C63.7418 18.5792 63.3078 18.3331 62.9431 18.0174C62.5784 17.7016 62.294 17.3271 62.0897 16.8938C61.8855 16.4532 61.7834 15.9759 61.7834 15.4618C61.7834 14.2061 62.2466 13.2367 63.1729 12.5538C64.1065 11.8635 65.496 11.5183 67.3414 11.5183H69.0372V10.8133C69.0372 10.2405 68.8512 9.7889 68.4792 9.45844C68.1072 9.12064 67.5711 8.95174 66.8709 8.95174C66.2509 8.95174 65.7987 9.08759 65.5142 9.3593C65.2298 9.62367 65.0875 9.97984 65.0875 10.4278H62.046C62.046 9.92109 62.1554 9.44008 62.3742 8.98478C62.6003 8.52948 62.9249 8.12926 63.3479 7.78411C63.7783 7.43896 64.2998 7.16725 64.9125 6.96897C65.5325 6.76335 66.24 6.66054 67.035 6.66054C67.7498 6.66054 68.4136 6.74867 69.0263 6.92491C69.6463 7.10116 70.1824 7.36186 70.6346 7.707C71.0868 8.05215 71.4406 8.48909 71.6959 9.01783C71.9512 9.53922 72.0788 10.1451 72.0788 10.8354V15.9465C72.0788 16.5854 72.1189 17.1141 72.1991 17.5327C72.2794 17.9513 72.3961 18.3111 72.5493 18.6122V18.7995H69.4639ZM66.5646 16.6515C66.8709 16.6515 67.1554 16.6147 67.418 16.5413C67.6805 16.4679 67.9176 16.3724 68.1291 16.2549C68.3406 16.1374 68.523 16.0052 68.6762 15.8584C68.8293 15.7041 68.9497 15.5499 69.0372 15.3957V13.3469H67.4836C67.0095 13.3469 66.6047 13.3946 66.2692 13.4901C65.9336 13.5782 65.6601 13.7067 65.4486 13.8756C65.2371 14.0372 65.0803 14.2354 64.9781 14.4704C64.876 14.6981 64.825 14.9478 64.825 15.2195C64.825 15.6307 64.9672 15.9722 65.2517 16.2439C65.5434 16.5156 65.9811 16.6515 66.5646 16.6515Z" fill="black"/>
<path d="M80.569 13.7985L80.9191 15.0763L84.07 6.88085H87.4289L81.4223 20.5839C81.291 20.885 81.1196 21.2118 80.9081 21.5643C80.7039 21.9168 80.445 22.2436 80.1313 22.5447C79.8177 22.8458 79.4347 23.0991 78.9825 23.3047C78.5376 23.5104 78.0088 23.6132 77.3961 23.6132C77.2502 23.6132 77.1153 23.6058 76.9913 23.5911C76.8673 23.5838 76.7469 23.5691 76.6302 23.5471C76.5135 23.5324 76.3968 23.5104 76.2801 23.481C76.1707 23.459 76.0504 23.4296 75.9191 23.3929L76.291 21.0576C76.415 21.0576 76.5719 21.0613 76.7615 21.0686C76.9584 21.0833 77.1153 21.0907 77.232 21.0907C77.4727 21.0907 77.6842 21.0172 77.8665 20.8703C78.0562 20.7235 78.2167 20.5619 78.3479 20.3857C78.4792 20.2094 78.585 20.0479 78.6652 19.901C78.7455 19.7541 78.8002 19.6807 78.8293 19.6807L79.5624 18.2928L74.5514 6.88085H77.8775L80.569 13.7985Z" fill="black"/>
<path d="M99.3873 18.7995H96.3458V11.8488H91.8381V18.7995H88.7856V2.76111H91.8381V9.33727H96.3458V2.76111H99.3873V18.7995Z" fill="black"/>
<path d="M114.037 5.28363H109.125V18.7995H106.039V5.28363H101.193V2.76111H114.037V5.28363Z" fill="black"/>
<path d="M119.562 2.76111L121.072 8.78651L122.79 2.76111H126.608V18.7995H123.786V14.0518L123.917 6.55039L121.827 13.5121H120.306L118.435 6.84781L118.567 14.0518V18.7995H115.744V2.76111H119.562Z" fill="black"/>
<path d="M132.538 16.299H140V18.7995H129.453V2.76111H132.538V16.299Z" fill="black"/>
<path d="M17.8422 11.7413L17.0983 12.0166L17.8422 12.281L23.8379 14.2968V17.282L14.1552 13.2393V10.7609L23.8379 6.71826V9.69241L17.8422 11.7413Z" fill="#FF4B33"/>
<path d="M5.99553 12.2587L6.73951 11.9834L5.99553 11.719L-9.69792e-05 9.70318L-9.72384e-05 6.71802L9.68262 10.7607L9.68262 13.2391L-9.63211e-05 17.2817L-9.65794e-05 14.3076L5.99553 12.2587Z" fill="#141414"/>
<path d="M11.6617 6.03636L11.9352 6.78541L12.1978 6.03636L14.2 -4.89687e-05L17.1649 -4.90991e-05L13.1496 9.74853L10.6879 9.74853L6.67261 -4.86374e-05L9.62666 -4.87674e-05L11.6617 6.03636Z" fill="#13D6C3"/>
<path d="M12.1759 17.9636L11.9023 17.2146L11.6398 17.9636L9.63757 24L6.67258 24.0001L10.6879 14.2515L13.1496 14.2515L17.1649 24L14.2109 24L12.1759 17.9636Z" fill="#FFB500"/>
</svg>
