<svg width="24" height="24" viewBox="0 0 24 24" fill="none" xmlns="http://www.w3.org/2000/svg">
<rect width="24" height="24" rx="5" fill="#141414"/>
<path d="M18.2507 5.97853L4.69039 11.1153C3.9528 11.3329 3.97171 12.0613 4.52018 12.241L7.91497 13.3006L9.21994 17.2927C9.3807 17.7278 9.50363 17.8981 9.77786 17.8981C10.0616 17.8981 10.1656 17.7941 10.4682 17.5386C10.8086 17.217 11.3381 16.7062 12.1703 15.8926L15.7069 18.5036C16.3594 18.863 16.8228 18.6738 16.993 17.8981L19.2058 6.92453C19.4327 5.97853 18.8748 5.69473 18.2507 5.97853ZM8.45398 13.0641L16.1797 8.21108C16.558 7.95566 16.6809 8.23946 16.5107 8.43812L10.0994 14.2087L9.7684 17.094L8.45398 13.0641Z" fill="white"/>
</svg>
