<svg width="24" height="24" viewBox="0 0 24 24" fill="none" xmlns="http://www.w3.org/2000/svg">
<rect width="24" height="24" rx="5" fill="#141414"/>
<path fill-rule="evenodd" clip-rule="evenodd" d="M11.8109 17.4466H12.8889C12.8889 17.4466 13.2199 17.4088 13.3807 17.2291C13.532 17.0684 13.532 16.7563 13.532 16.7563C13.532 16.7563 13.5131 15.3001 14.1845 15.092C14.8464 14.884 15.7069 16.4915 16.6053 17.1157C17.2861 17.5885 17.8062 17.4844 17.8062 17.4844L20.227 17.4466C20.227 17.4466 21.4941 17.371 20.8889 16.3781C20.8417 16.293 20.5391 15.6405 19.0923 14.2977C17.5793 12.8887 17.7778 13.1157 19.6029 10.6854C20.7187 9.20076 21.1632 8.29296 21.0213 7.90525C20.8889 7.53646 20.0663 7.63102 20.0663 7.63102L17.3428 7.64993C17.3428 7.64993 17.1443 7.62156 16.993 7.71613C16.8511 7.80123 16.7566 8.00927 16.7566 8.00927C16.7566 8.00927 16.3216 9.15348 15.7542 10.1369C14.5438 12.1984 14.0521 12.3024 13.8535 12.1795C13.3901 11.8769 13.5036 10.9785 13.5036 10.345C13.5036 8.3497 13.8062 7.51755 12.9173 7.30005C12.6242 7.2244 12.4067 7.17712 11.6502 7.17712C10.6762 7.16766 9.85349 7.17712 9.39013 7.40407C9.07807 7.55537 8.84166 7.8958 8.9835 7.91471C9.16317 7.94308 9.56979 8.02818 9.78729 8.32133C10.071 8.69958 10.0521 9.55064 10.0521 9.55064C10.0521 9.55064 10.2128 11.8958 9.67382 12.1889C9.30502 12.3875 8.80384 11.9809 7.72583 10.1086C7.16791 9.15348 6.75183 8.09438 6.75183 8.09438C6.75183 8.09438 6.66672 7.8958 6.52488 7.79178C6.35466 7.65939 6.1088 7.62156 6.1088 7.62156L3.51779 7.64048C3.51779 7.64048 3.13007 7.64993 2.98823 7.82015C2.8653 7.97145 2.97878 8.2835 2.97878 8.2835C2.97878 8.2835 5.00242 13.0211 7.3003 15.4135C9.4185 17.5885 11.8109 17.4466 11.8109 17.4466Z" fill="white"/>
</svg>
